# xmcd
#
# Track frame offsets: 
#        150
#        20342
#        40932
#        54055
#        67475
#        87895
#        103140
#        117580
#        141127
#        162590
#        175865
#        188795
#        204752
#        219220
#
# Disc length: 3087 seconds
#
# Revision: 9
# Processed by: cddbd v1.5.2PL0 Copyright (c) Steve Scherf et al.
# Submitted via: ExactAudioCopy v1.1
#
DISCID=c30c0d0e
DTITLE=Various Artist - The Alligator Records Christmas Collection
DYEAR=1992
DGENRE=Christmas
TTITLE0=Koko Taylor - Merry, Merry Christmas
TTITLE1=Kenny Neal - Christmas Time in the Country
TTITLE2=Lil' Ed and The Blues Imperials - I'm Your Santa
TTITLE3=Katie Webster - Deck the Halls with Boogie Woogie
TTITLE4=William Clarke - Please Let Me Be Your Santa Claus
TTITLE5=Tinsley Ellis - Santa Claus Wants Some Lovin'
TTITLE6=Charles Brown - Boogie Woogie Santa Claus
TTITLE7=Son Seals - Lonesome Christmas
TTITLE8=Lonnie Brooks - Christmas on the Bayou
TTITLE9=Little Charlie and the Nightcats - Santa Claus
TTITLE10=Elvin Bishop - The Little Drummer Boy
TTITLE11=Saffire -The Uppity Blues Women - One Parent Christmas
TTITLE12=Clarence "Gatemouth" Brown - Christmas
TTITLE13=Charlie Musselwhite - Silent Night
EXTD=
EXTT0=
EXTT1=
EXTT2=
EXTT3=
EXTT4=
EXTT5=
EXTT6=
EXTT7=
EXTT8=
EXTT9=
EXTT10=
EXTT11=
EXTT12=
EXTT13=
PLAYORDER=
